<svg width="286" height="109" viewBox="0 0 286 109" fill="none" xmlns="http://www.w3.org/2000/svg">
<g clip-path="url(#clip0_1_192)">
<path d="M0 11.9845H6.18047L6.39275 16.493C9.01353 13.0174 12.3365 11.2795 16.3615 11.2795C18.6557 11.2795 20.6887 11.796 22.4685 12.8288C24.2484 13.8617 25.5792 15.4602 26.4691 17.6243C27.8734 15.4602 29.4981 13.8617 31.3514 12.8288C33.1966 11.796 35.1315 11.2795 37.14 11.2795C40.5119 11.2795 43.2796 12.3452 45.4596 14.4847C47.6395 16.6242 48.7253 19.8048 48.7253 24.0346V47.5774H41.8427V26.4364C41.8427 23.0509 41.2712 20.6819 40.12 19.3211C38.9688 17.9604 37.2788 17.28 35.0336 17.28C33.017 17.28 31.3106 18.0423 29.9063 19.567C28.502 21.0918 27.7999 23.2231 27.7999 25.9446V47.5856H20.9173V26.4446C20.9173 23.0591 20.3294 20.6901 19.1619 19.3293C17.9944 17.9686 16.3044 17.2882 14.1081 17.2882C12.1405 17.2882 10.4341 18.0423 8.98087 19.5425C7.52761 21.0426 6.80097 23.1165 6.80097 25.7478V47.5938H0V11.9845Z" fill="#393D43"/>
<path d="M53.6322 60.8242L54.4731 54.2664C55.2242 54.4549 55.9835 54.6271 56.751 54.791C57.5266 54.9549 58.2614 55.0369 58.9636 55.0369C61.4945 55.0369 63.3152 53.6024 64.4419 50.7333L64.9317 49.5365L51.9421 11.9681H59.2411L68.2302 40.3719L77.358 11.9681H84.7305L71.4633 48.5446C69.6834 53.4302 67.7566 56.8403 65.6747 58.7667C63.5928 60.6931 61.3557 61.6604 58.9717 61.6604C57.1429 61.6604 55.3712 61.3817 53.6403 60.816L53.6322 60.8242Z" fill="#393D43"/>
<path d="M90.0618 0H104.66C109.06 0 112.947 1.02467 116.31 3.0658C119.682 5.10694 122.287 7.95142 124.14 11.591C125.985 15.2307 126.916 19.3785 126.916 24.0264C126.916 28.6743 125.993 32.5762 124.14 36.1503C122.287 39.7243 119.658 42.5196 116.245 44.5361C112.824 46.5609 108.873 47.5691 104.382 47.5691H90.0618V0ZM104.668 41.1588C107.713 41.1588 110.342 40.4211 112.563 38.9374C114.784 37.4536 116.474 35.4289 117.617 32.8385C118.76 30.2564 119.339 27.3217 119.339 24.0264C119.339 18.8129 118.017 14.5749 115.372 11.3041C112.726 8.04159 109.02 6.40212 104.243 6.40212H97.3608V41.1506H104.66L104.668 41.1588Z" fill="#393D43"/>
<path d="M133.938 0H140.747L160.121 30.3056L163.003 34.8879V0H170.024V47.5773H163.493L143.767 17.6899L140.959 13.1813V47.5773H133.938V0Z" fill="#393D43"/>
<path d="M192.419 0H198.877L215.378 47.5773H207.866L204.568 37.5028H186.459L183.161 47.5773H175.788L192.419 0ZM202.453 31.0843L195.505 10.0089L188.557 31.0843H202.453Z" fill="#393D43"/>
<path d="M226.579 60.6521C224.448 59.7832 222.75 58.5618 221.493 56.9879C220.227 55.414 219.525 53.6434 219.386 51.6678H226.269C226.547 52.8892 227.412 53.9139 228.865 54.7336C230.319 55.5534 232.213 55.9632 234.548 55.9632C240.026 55.9632 242.761 53.4303 242.761 48.3479V43.7C240.418 46.7576 237.242 48.2823 233.217 48.2823C230.27 48.2823 227.649 47.5282 225.355 46.0281C223.06 44.5279 221.256 42.3638 219.95 39.544C218.635 36.7241 217.982 33.4369 217.982 29.6744C217.982 25.9118 218.66 22.7804 220.015 19.9851C221.37 17.1898 223.248 15.0421 225.632 13.5338C228.016 12.0337 230.735 11.2795 233.772 11.2795C238.034 11.2795 241.259 13.0174 243.463 16.493L243.741 11.9845H249.636V47.1511C249.636 52.3646 248.288 56.1354 245.602 58.4634C242.908 60.7915 238.973 61.9555 233.772 61.9555C231.102 61.9555 228.702 61.521 226.579 60.6521ZM227.698 39.0849C229.404 41.2244 231.666 42.2901 234.474 42.2901C237.283 42.2901 239.332 41.2326 240.9 39.1177C242.467 37.0028 243.251 33.8058 243.251 29.535C243.251 25.7314 242.492 22.7312 240.973 20.5507C239.455 18.362 237.242 17.2718 234.344 17.2718C231.445 17.2718 229.127 18.3374 227.535 20.477C225.942 22.6165 225.15 25.6331 225.15 29.535C225.15 33.7648 226 36.9454 227.714 39.0849H227.698Z" fill="#393D43"/>
<path d="M263.05 46.0936C260.666 44.5935 258.829 42.454 257.539 39.6833C256.249 36.9126 255.612 33.6665 255.612 29.9531C255.612 26.2397 256.29 23.0345 257.645 20.19C259 17.3456 260.878 15.1487 263.262 13.5994C265.646 12.0501 268.365 11.2713 271.402 11.2713C274.162 11.2713 276.652 11.9517 278.881 13.3125C281.101 14.6732 282.849 16.6734 284.114 19.3047C285.38 21.9361 286.008 25.1084 286.008 28.8218C286.008 29.3875 285.959 30.3301 285.869 31.6417H262.707C262.895 35.0272 263.768 37.6176 265.336 39.4292C266.903 41.2408 269.018 42.1425 271.688 42.1425C273.517 42.1425 275.092 41.6343 276.423 40.626C277.754 39.6177 278.701 38.216 279.264 36.429H286C285.249 40.003 283.518 42.8803 280.807 45.0608C278.089 47.2495 274.954 48.3397 271.402 48.3397C268.218 48.3397 265.434 47.5855 263.05 46.0854V46.0936ZM279.191 26.5676C278.954 23.51 278.138 21.2229 276.733 19.6982C275.329 18.1735 273.484 17.4111 271.19 17.4111C268.896 17.4111 267.091 18.1981 265.646 19.772C264.193 21.3459 263.262 23.6165 262.838 26.5758H279.191V26.5676Z" fill="#393D43"/>
<path d="M209.352 102.573L209.238 104.344H207.352V88.0148H209.581V94.2202C210.348 93.0316 211.557 92.3348 213.141 92.3348C215.974 92.3348 217.949 94.712 217.949 98.4254C217.949 102.139 215.859 104.582 212.839 104.582C211.263 104.582 210.071 103.885 209.352 102.573ZM212.7 102.622C214.561 102.622 215.582 101.131 215.582 98.4254C215.582 95.7203 214.439 94.3432 212.724 94.3432C211.01 94.3432 209.589 95.6465 209.589 98.4254C209.589 101.204 210.912 102.622 212.7 102.622Z" fill="#393D43"/>
<path d="M220.244 108.729L220.521 106.557C221.052 106.697 221.477 106.811 222.007 106.811C222.799 106.811 223.428 106.393 223.82 105.385L223.983 104.992L219.688 92.5562H222.105L225.077 101.958L228.098 92.5562H230.539L226.147 104.664C224.889 108.139 223.403 109 222.007 109C221.428 109 220.889 108.926 220.244 108.721V108.729Z" fill="#393D43"/>
<path d="M239.904 73.276H243.659V103.024H246.076C247.913 103.024 249.521 102.827 250.885 102.442C252.248 102.057 253.391 101.614 254.314 101.122C255.408 100.573 256.339 99.9501 257.114 99.2616V103.59H239.912V73.2842H239.904V73.276Z" fill="#393D43"/>
<path d="M260.47 80.4651C259.956 80.4651 259.498 80.2765 259.115 79.8995C258.731 79.5224 258.535 79.0469 258.535 78.4731C258.535 77.8993 258.731 77.473 259.115 77.1124C259.498 76.7517 259.956 76.5713 260.47 76.5713C261.041 76.5713 261.523 76.7517 261.89 77.1124C262.266 77.473 262.454 77.9321 262.454 78.4731C262.454 79.0469 262.266 79.5306 261.89 79.8995C261.515 80.2765 261.041 80.4651 260.47 80.4651ZM258.617 83.3669C258.617 82.9653 258.747 82.6292 259 82.3505C259.262 82.0799 259.588 81.9406 259.996 81.9406H262.242V102.073C262.242 103.082 261.768 103.59 260.821 103.59H258.625V83.3669H258.617Z" fill="#393D43"/>
<path d="M272.806 103.582C272.031 103.582 271.5 103.18 271.214 102.368L263.67 81.9324H267.336L274.97 102.713L278.595 93.9661C279.028 92.9578 279.387 92.0151 279.673 91.1544C279.958 90.2855 280.195 89.4412 280.383 88.5968C280.571 87.7607 280.701 86.9082 280.767 86.0393C280.84 85.1703 280.848 84.2686 280.791 83.3095C280.758 82.8751 280.881 82.539 281.134 82.2931C281.395 82.0472 281.681 81.9242 281.999 81.9242H284.155L275.052 103.573H272.806V103.582Z" fill="#393D43"/>
</g>
<defs>
<clipPath id="clip0_1_192">
<rect width="286" height="109" fill="white"/>
</clipPath>
</defs>
</svg>
