<svg width="40" height="40" viewBox="0 0 40 40" fill="none" xmlns="http://www.w3.org/2000/svg">
<path d="M39.9972 20.0005C39.9972 30.1016 32.5098 38.4524 22.7831 39.8075C21.8736 39.9336 20.9431 39.9995 19.9986 39.9995C18.9084 39.9995 17.8377 39.9126 16.7951 39.7445C7.27298 38.2114 0 29.9544 0 20.0005C0 8.9548 8.9546 0 20 0C31.0454 0 40 8.9548 40 20.0005H39.9972Z" fill="#F7F6F2"/>
<path d="M22.7837 16.0604V20.4173H28.1733L27.3199 26.2862H22.7837V39.8081C21.8742 39.9342 20.9438 40.0001 19.9992 40.0001C18.909 40.0001 17.8384 39.9132 16.7958 39.7451V26.2862H11.8252V20.4173H16.7958V15.0864C16.7958 11.7792 19.4765 9.09692 22.7851 9.09692V9.09973C22.7949 9.09973 22.8033 9.09692 22.8131 9.09692H28.1747V14.1727H24.6713C23.6301 14.1727 22.7851 15.0177 22.7851 16.059L22.7837 16.0604Z" fill="#4F7FA8"/>
</svg>
