<svg width="40" height="40" viewBox="0 0 40 40" fill="none" xmlns="http://www.w3.org/2000/svg">
<path d="M20.0455 0H19.9545C8.93392 0 0 8.93392 0 19.9545V20.0455C0 31.0661 8.93392 40 19.9545 40H20.0455C31.0661 40 40 31.0661 40 20.0455V19.9545C40 8.93392 31.0661 0 20.0455 0Z" fill="#F7F6F2"/>
<path d="M26.1886 8.13794H13.8115C10.3921 8.13794 7.61035 10.9197 7.61035 14.3391V25.6624C7.61035 29.0818 10.3921 31.8635 13.8115 31.8635H26.1886C29.608 31.8635 32.3898 29.0818 32.3898 25.6624V14.3391C32.3898 10.9197 29.608 8.13794 26.1886 8.13794ZM9.79793 14.3391C9.79793 12.1263 11.5987 10.3255 13.8115 10.3255H26.1886C28.4014 10.3255 30.2022 12.1263 30.2022 14.3391V25.6624C30.2022 27.8752 28.4014 29.676 26.1886 29.676H13.8115C11.5987 29.676 9.79793 27.8752 9.79793 25.6624V14.3391Z" fill="#4F7FA8"/>
<path d="M20.0001 25.7675C23.1798 25.7675 25.7682 23.1805 25.7682 19.9993C25.7682 16.8182 23.1812 14.2312 20.0001 14.2312C16.8189 14.2312 14.2319 16.8182 14.2319 19.9993C14.2319 23.1805 16.8189 25.7675 20.0001 25.7675ZM20.0001 16.4202C21.9746 16.4202 23.5806 18.0262 23.5806 20.0007C23.5806 21.9753 21.9746 23.5813 20.0001 23.5813C18.0255 23.5813 16.4195 21.9753 16.4195 20.0007C16.4195 18.0262 18.0255 16.4202 20.0001 16.4202Z" fill="#4F7FA8"/>
<path d="M26.3027 15.163C27.1589 15.163 27.8568 14.4665 27.8568 13.6088C27.8568 12.7512 27.1603 12.0547 26.3027 12.0547C25.445 12.0547 24.7485 12.7512 24.7485 13.6088C24.7485 14.4665 25.445 15.163 26.3027 15.163Z" fill="#4F7FA8"/>
</svg>
