<svg width="82" height="56" viewBox="0 0 82 56" fill="none" xmlns="http://www.w3.org/2000/svg">
<g clip-path="url(#clip0_107_159)">
<path d="M-0.00012207 0H6.95291V54.9573H11.4278C14.8372 54.9573 17.8086 54.5978 20.3381 53.879C22.8675 53.1601 24.9866 52.3465 26.6913 51.438C28.7157 50.4269 30.448 49.2775 31.8844 47.9977V55.9961H-0.00012207V0Z" fill="#F7F6F2"/>
<path d="M38.1232 13.2793C37.1643 13.2793 36.3237 12.9356 35.6055 12.2405C34.8874 11.5493 34.5283 10.6685 34.5283 9.60202C34.5283 8.59087 34.8874 7.74957 35.6055 7.08206C36.3237 6.41455 37.1643 6.08276 38.1232 6.08276C39.1886 6.08276 40.0686 6.4185 40.7592 7.08206C41.4497 7.74957 41.797 8.59087 41.797 9.60202C41.797 10.6685 41.4497 11.5493 40.7592 12.2405C40.0646 12.9356 39.1886 13.2793 38.1232 13.2793ZM34.6861 18.6391C34.6861 17.8926 34.9268 17.2685 35.4043 16.759C35.8857 16.2535 36.4974 16.0007 37.2432 16.0007H41.3984V53.1997C41.3984 55.068 40.5184 56.0001 38.7624 56.0001H34.6861V18.6391Z" fill="#F7F6F2"/>
<path d="M60.9829 55.9999C59.5465 55.9999 58.56 55.2534 58.0273 53.7604L44.0423 16.0005H50.8375L64.9843 54.4003L71.6966 38.2417C72.4976 36.3774 73.1606 34.6435 73.6933 33.0398C74.226 31.4402 74.664 29.8682 75.0113 28.3199C75.3586 26.7715 75.5953 25.1995 75.7295 23.5999C75.8637 22.0002 75.8755 20.3215 75.769 18.5599C75.7137 17.7581 75.9308 17.1341 76.4082 16.6799C76.8897 16.2296 77.4184 16.0005 78.0064 16.0005H82.0038L65.1382 55.9999H60.9829Z" fill="#F7F6F2"/>
</g>
<defs>
<clipPath id="clip0_107_159">
<rect width="82" height="56" fill="white"/>
</clipPath>
</defs>
</svg>
