<svg width="40" height="40" viewBox="0 0 40 40" fill="none" xmlns="http://www.w3.org/2000/svg">
<path d="M20.0455 0H19.9545C8.93391 0 0 8.93392 0 19.9545V20.0455C0 31.0661 8.93391 40 19.9545 40H20.0455C31.0661 40 40 31.0661 40 20.0455V19.9545C40 8.93392 31.0661 0 20.0455 0Z" fill="#F7F6F2"/>
<path d="M29.6688 14.4705V18.2472C29.0087 18.1828 28.1511 18.0328 27.2023 17.6853C25.9635 17.2312 25.0414 16.6104 24.4374 16.1297V23.7631L24.422 23.7393C24.4318 23.8906 24.4374 24.0448 24.4374 24.2004C24.4374 27.9911 21.3529 31.077 17.5607 31.077C13.7686 31.077 10.6841 27.9911 10.6841 24.2004C10.6841 20.4096 13.7686 17.3223 17.5607 17.3223C17.9321 17.3223 18.2965 17.3517 18.6524 17.4092V21.1313C18.3105 21.0094 17.9433 20.9435 17.5607 20.9435C15.7655 20.9435 14.3039 22.4038 14.3039 24.2004C14.3039 25.9969 15.7655 27.4572 17.5607 27.4572C19.3559 27.4572 20.8176 25.9955 20.8176 24.2004C20.8176 24.1331 20.8162 24.0658 20.812 23.9986V9.16479H24.5859C24.5999 9.48431 24.6125 9.80664 24.6266 10.1262C24.6518 10.7554 24.876 11.3594 25.267 11.8541C25.7252 12.4356 26.4021 13.1111 27.3523 13.6507C28.2421 14.1538 29.0774 14.371 29.6688 14.4733V14.4705Z" fill="#4F7FA8"/>
</svg>
