<svg width="40" height="40" viewBox="0 0 40 40" fill="none" xmlns="http://www.w3.org/2000/svg">
<path d="M39.9972 20.0007C39.9972 30.1019 32.5098 38.4529 22.7831 39.808C21.8736 39.9341 20.9431 40 19.9986 40C18.9083 40 17.8377 39.9131 16.7951 39.745C7.27298 38.2118 0 29.9548 0 20.0007C0 8.95491 8.95459 0 20 0C31.0454 0 40 8.95491 40 20.0007H39.9972Z" fill="#F7F6F2"/>
<path d="M8.11166 8.82178L17.3353 21.154L8.0542 31.181H10.1436L18.27 22.4027L24.8353 31.181H31.9443L22.2022 18.1551L30.8415 8.82178H28.7521L21.2689 16.9064L15.2221 8.82178H8.11304H8.11166ZM11.1834 10.3605H14.4485L28.8698 29.6423H25.6047L11.1834 10.3605Z" fill="#4F7FA8"/>
</svg>
