<svg width="40" height="40" viewBox="0 0 40 40" fill="none" xmlns="http://www.w3.org/2000/svg">
<path d="M40 20C40 8.9543 31.0457 0 20 0C8.95432 0 0 8.9543 0 20C0 31.0457 8.95432 40 20 40C31.0457 40 40 31.0457 40 20Z" fill="#F7F6F2"/>
<path d="M32.5935 15.8555C32.4361 14.3363 32.0974 12.6569 30.8509 11.7743C29.8854 11.0899 28.6163 11.0646 27.4316 11.066C24.9272 11.066 22.4214 11.0702 19.917 11.0716C17.5081 11.0744 15.0993 11.0758 12.6905 11.0786C11.6842 11.0786 10.7061 11.0013 9.7715 11.437C8.96903 11.8108 8.34082 12.5219 7.96277 13.3132C7.43857 14.4136 7.32895 15.6602 7.26571 16.8772C7.14906 19.0935 7.16171 21.3154 7.30084 23.5303C7.40344 25.1465 7.66343 26.9327 8.91282 27.9629C10.0203 28.875 11.583 28.92 13.0193 28.9214C17.5784 28.9256 22.1389 28.9298 26.6994 28.9326C27.284 28.934 27.8939 28.9228 28.4898 28.8581C29.6619 28.7316 30.7792 28.3957 31.5325 27.5272C32.2928 26.6517 32.4881 25.4332 32.6034 24.2794C32.8844 21.4799 32.8816 18.6536 32.5935 15.8555ZM17.2805 23.9238V16.0748L24.0769 19.9986L17.2805 23.9238Z" fill="#4F7FA8"/>
</svg>
